<?xml version="1.0" encoding="utf-8"?>
<!-- Generator: Adobe Illustrator 22.1.0, SVG Export Plug-In . SVG Version: 6.00 Build 0)  -->
<svg version="1.1" id="Layer_1" xmlns="http://www.w3.org/2000/svg" xmlns:xlink="http://www.w3.org/1999/xlink" x="0px" y="0px"
	 viewBox="0 0 500 300" style="enable-background:new 0 0 500 300;" xml:space="preserve">
<style type="text/css">
	.st0{fill:#FFFFFF;}
	.st1{opacity:0.38;fill:#FFFFFF;}
	.st2{opacity:0.62;}
</style>
<g>
	<path class="st0" d="M184.8,76.8c2-10.2,5.2-20.1,11.7-27.3c6.2-7.1,14.2-10.7,19.7-10.7c4.7,0,8.7,2.7,8.7,5.6
		c0,2-2.3,5.4-4.1,6.8c-1.1,0.8-2.2,0.9-3.1,0c-3.1-3.4-6.5-5.2-9.4-5.2c-5.2,0-8.8,5.7-13,30.8h15.3l-2.6,4.9
		c-2.3,0.1-9.9,0.7-13.6,0.7c-2.6,14.9-4.1,23.6-7.1,39.6c-4.6,24-9.6,33.4-17.1,41.1c-6,6.5-12.5,9-15.7,9c-5,0-8.7-2.6-8.7-6
		c0-2.3,1.9-5.8,4.2-7.5c0.9-0.7,2-0.7,2.6,0c2.7,2.3,5.4,4.6,8.8,4.6c7.7,0,10-9.5,14.7-36.5c3.3-18.5,5.4-30.9,7.6-44.4h-11.5
		l0.1-1.6l3.8-3.9H184.8z"/>
	<path class="st1" d="M223.3,61.8c5.7-7.1,12.3-12.8,20-17.2l1.3,2.2c-7.1,5.7-12.2,11.2-15.2,16.5c-5.3,9.3-8,21.7-8,37.2
		c0,11.5,1,21,3,28.4c3.6,13.1,10.3,22.9,20.2,29.4l-1.7,2.2c-5.4-2.6-11.3-7.7-17.6-15.3c-10.5-12.6-15.7-26.9-15.7-42.9
		C209.5,86.9,214.1,73.4,223.3,61.8z"/>
	<path class="st0" d="M292,82.5c0,2.3-1.9,5.4-4.2,6.5c-1.2,0.5-2,0.3-3.1-0.9c-3.7-4.2-7.1-6.1-10.2-6.1c-3.5,0-7.3,2.8-7.3,7.7
		c0,4.5,4.1,7.7,9,11.5c8.1,6.4,11.7,9.9,11.7,15.9c0,11.1-14.1,20.9-25.1,20.9c-6.5,0-12.8-4.5-12.8-9.2c0-3,3.3-6.6,5.6-6.9
		c0.9-0.1,1.5,0.4,2.3,1.4c3.4,4.9,7.5,7.9,11.9,7.9c5.6,0,9-4.1,9-8.4c0-3.3-1.5-6.5-7.9-11.8c-6.4-5-11.9-8.8-11.8-15.9
		c0-4.1,1.6-8.5,7.1-13.2c4.3-3.9,10.6-6.6,15.2-6.6C287.3,75.1,292,78.7,292,82.5z"/>
	<path class="st1" d="M329.4,121.6c-1.7,5.9-4.2,11.4-7.6,16.6c-3.5,5.6-8.1,10.8-14,15.6c-3.8,3.2-7.1,5.4-9.7,6.7l-1.3-2.2
		c6.8-5.2,11.8-10.4,14.9-15.8c5.6-9.5,8.3-22.1,8.3-37.8c0-12.7-1.3-23-3.8-31.1c-3.6-11.4-10-20.3-19.4-26.8l1.7-2.2
		c7,3.9,13.5,9.8,19.5,17.6c9.2,12.1,13.8,25.7,13.8,40.7C332,109.5,331.1,115.7,329.4,121.6z"/>
</g>
<g class="st2">
	<path class="st0" d="M67,208.3c-0.6-2-1.2-3.7-2.2-5.2c-1.3-2.4-2.4-3-6.3-3h-7.5c-2,0-2.3,0.2-2.3,2.3v16.3h8.7
		c5.1,0,5.4-0.8,6.5-5.8H66v14.7h-2.2c-0.9-4.9-1.4-6.1-6.4-6.1h-8.7v12.6c0,6.1,0.7,6.4,7.1,7v2H36.2v-2c5.7-0.4,6.3-0.9,6.3-7
		v-27.9c0-6.1-0.7-6.4-6.3-7v-2h22.4c6.3,0,8.7-0.1,9.9-0.1c0.1,2.5,0.4,7.5,0.7,10.9L67,208.3z"/>
	<path class="st0" d="M107.5,241.6c-3.4,0.5-7.2,1.4-10.8,2.5c0-1.1,0-3.7,0-5.4c-3.8,3.2-6.9,5.4-10.8,5.4c-4.7,0-8.8-2.9-8.8-10.6
		v-13.7c0-3.8-0.6-4.2-2.3-4.6l-2-0.4V213c3-0.1,7.7-0.8,10.1-1.3c-0.2,2.3-0.2,5.6-0.2,10.3v9.6c0,6.2,3.2,8,6.4,8
		c2.6,0,5.2-1.1,7.6-3.4v-16.4c0-3.8-0.8-4.3-3.2-4.7l-2.3-0.3V213c4.5-0.2,9.5-1,11.1-1.3v23.6c0,3.5,0.6,4,3.2,4.2l2,0.1V241.6z"
		/>
	<path class="st0" d="M131.2,243.2v-2c4.1-0.4,4.5-0.9,4.5-5.7v-11.6c0-4.9-1.8-8.3-6.4-8.3c-2.9,0-5.6,1.7-7.8,3.7v16.5
		c0,4.9,0.4,5,4.6,5.4v2h-15.2v-2c4.7-0.5,5.1-0.8,5.1-5.4v-14.5c0-4.6-0.5-4.8-4.3-5.4V214c3.5-0.6,6.9-1.5,9.9-2.8
		c0,1.6,0,3.9,0,5.6c1.4-1,3-2,4.8-3.2c2-1.3,3.8-2.1,5.9-2.1c5.6,0,9.2,4.2,9.2,11v13.4c0,4.8,0.4,5,4.5,5.4v2H131.2z"/>
	<path class="st0" d="M176.7,236.8c-3.1,4.1-7.8,7.2-12.1,7.2c-9,0-14.2-7.3-14.2-14.8c0-5.6,2.4-10.2,7.1-13.8c3.7-2.9,8-4,10.7-4
		c3.2,0,5.5,1,6.6,1.9c1,0.8,1.1,1.3,1.1,2c0,1.7-1.8,3.2-2.5,3.2c-0.4,0-0.6-0.1-1.3-0.7c-2.2-2-4.6-3-7.1-3
		c-4.7,0-8.7,3.9-8.7,11.3c-0.1,9.8,6.6,13,10.7,13c3,0,5.4-0.8,8.6-3.9L176.7,236.8z"/>
	<path class="st0" d="M195.1,243.1c-1.2,0.6-2.3,0.9-3,0.9c-4.5,0-6.9-2.8-6.9-8.4v-20.5h-4.9l-0.3-0.8l1.9-2h3.2v-5.9
		c1.3-1.4,3.4-3.2,4.7-4.7l1.1,0.1c-0.1,3-0.2,7.1-0.2,10.4h8c0.6,0.7,0.4,2.3-0.4,2.9h-7.6v18.1c0,5.7,2.3,6.8,4.1,6.8
		c1.7,0,3.3-0.6,4.3-1.1l0.6,1.8L195.1,243.1z"/>
	<path class="st0" d="M202.6,243.2v-2c4.4-0.4,4.9-0.8,4.9-5.6v-14.5c0-4.4-0.2-4.7-4.4-5.4v-1.7c3.7-0.6,7-1.6,10-2.8
		c0,3,0,5.9,0,8.9v15.5c0,4.8,0.5,5.1,5.1,5.6v2H202.6z M210,204.3c-2,0-3.7-1.8-3.7-3.7c0-2.3,1.8-3.9,3.8-3.9c2,0,3.6,1.6,3.6,3.9
		C213.6,202.6,212,204.3,210,204.3z"/>
	<path class="st0" d="M237.8,211.4c8.8,0,15.4,6.7,15.4,15.8c0,11.4-8.5,16.9-15.4,16.9c-9.7,0-15.7-7.8-15.7-15.7
		C222.2,216.8,231.1,211.4,237.8,211.4z M237,213.8c-4.3,0-8.2,4.2-8.2,12.3c0,9,3.9,15.4,9.7,15.4c4.4,0,8-3.2,8-12.8
		C246.6,220.5,243.2,213.8,237,213.8z"/>
	<path class="st0" d="M278.2,243.2v-2c4.1-0.4,4.5-0.9,4.5-5.7v-11.6c0-4.9-1.8-8.3-6.4-8.3c-2.9,0-5.6,1.7-7.8,3.7v16.5
		c0,4.9,0.4,5,4.6,5.4v2h-15.2v-2c4.7-0.5,5.1-0.8,5.1-5.4v-14.5c0-4.6-0.5-4.8-4.3-5.4V214c3.5-0.6,6.9-1.5,9.9-2.8
		c0,1.6,0,3.9,0,5.6c1.4-1,3-2,4.8-3.2c2-1.3,3.8-2.1,5.9-2.1c5.6,0,9.2,4.2,9.2,11v13.4c0,4.8,0.4,5,4.5,5.4v2H278.2z"/>
	<path class="st0" d="M321.1,208.1c-1.2-4.7-3.5-9.3-9.7-9.3c-5.5,0-7.6,3.9-7.6,7.6c0,5.1,3.4,7.5,9,10.4s12.1,6.1,12.1,14
		c0,7.5-6.3,13.4-15.4,13.4c-3.9,0-7.9-1.2-10.9-2.2c-0.5-1.8-1.4-7.5-1.9-10.9l2.2-0.6c1.2,4.4,4.3,11,11.6,11
		c5.4,0,8.5-3.3,8.5-8.4c0-5.3-3.7-7.7-9.1-10.6c-4.6-2.5-11.6-5.9-11.6-14c0-6.8,5-12.3,14.3-12.3c4.2,0,8.2,1.1,9.7,1.2
		c0.3,2.5,0.6,5.6,1.1,10.2L321.1,208.1z"/>
	<path class="st0" d="M358.1,236.8c-3.1,4.1-7.8,7.2-12.1,7.2c-9,0-14.2-7.3-14.2-14.8c0-5.6,2.4-10.2,7.1-13.8c3.7-2.9,8-4,10.7-4
		c3.2,0,5.5,1,6.6,1.9c1,0.8,1.1,1.3,1.1,2c0,1.7-1.8,3.2-2.5,3.2c-0.4,0-0.6-0.1-1.3-0.7c-2.2-2-4.6-3-7.1-3
		c-4.7,0-8.7,3.9-8.7,11.3c-0.1,9.8,6.6,13,10.7,13c3,0,5.4-0.8,8.6-3.9L358.1,236.8z"/>
	<path class="st0" d="M377.6,243.2h-16.2v-2c4.4-0.4,4.9-0.8,4.9-5.4v-14.7c0-4.7-0.3-4.9-4.4-5.4v-1.8c3.5-0.6,6.6-1.4,9.9-2.9
		c0,2.3,0,5.4,0,7.8c2.5-3.7,5.4-7.5,9-7.5c2.6,0,4.1,1.6,4.1,3.4c0,1.6-1.1,3.2-2.4,3.9c-0.7,0.4-1.3,0.4-1.8-0.1
		c-1.1-1.1-1.9-1.8-3.2-1.8c-1.5,0-4.1,2.2-5.6,5.8v13.3c0,4.7,0.4,5,5.8,5.4V243.2z"/>
	<path class="st0" d="M388.4,243.2v-2c4.4-0.4,4.9-0.8,4.9-5.6v-14.5c0-4.4-0.2-4.7-4.4-5.4v-1.7c3.7-0.6,7-1.6,10-2.8
		c0,3,0,5.9,0,8.9v15.5c0,4.8,0.5,5.1,5.1,5.6v2H388.4z M395.7,204.3c-2,0-3.7-1.8-3.7-3.7c0-2.3,1.8-3.9,3.8-3.9
		c2,0,3.6,1.6,3.6,3.9C399.4,202.6,397.8,204.3,395.7,204.3z"/>
	<path class="st0" d="M406.9,213.7c3.3-0.5,7-1.7,10.2-3c0,1.7,0,3.9,0,5.6c0.2-0.1,5.9-3.4,6.1-3.5c1.7-0.9,3.2-1.4,4.1-1.4
		c7.8,0,12.5,6.5,12.5,13.5c0,10.7-8.5,17.5-17.7,19.2c-2.1-0.1-4-0.7-5-1.3v9.5c0,5.2,0.6,5.6,6,6.1v2h-16.7v-2
		c4.6-0.5,5.1-0.8,5.1-5.6v-32.1c0-4.2-0.1-4.5-4.7-5.1V213.7z M417.2,237.8c1.6,1.6,4.4,2.8,6.7,2.8c6.1,0,10.1-5.1,10.1-13
		c0-7.6-4.4-11.9-9.5-11.9c-2.5,0-5.4,1.6-7.3,3V237.8z"/>
	<path class="st0" d="M458.7,243.1c-1.2,0.6-2.3,0.9-3,0.9c-4.5,0-6.9-2.8-6.9-8.4v-20.5h-4.9l-0.3-0.8l1.9-2h3.2v-5.9
		c1.3-1.4,3.4-3.2,4.7-4.7l1.1,0.1c-0.1,3-0.2,7.1-0.2,10.4h8c0.6,0.7,0.4,2.3-0.4,2.9h-7.6v18.1c0,5.7,2.3,6.8,4.1,6.8
		c1.7,0,3.3-0.6,4.3-1.1l0.6,1.8L458.7,243.1z"/>
</g>
</svg>
